<svg width="36" height="35" viewBox="0 0 36 35" fill="none" xmlns="http://www.w3.org/2000/svg">
<path d="M36 17.5C36 27.165 27.9411 35 18 35C8.05887 35 0 27.165 0 17.5C0 7.83502 8.05887 0 18 0C27.9411 0 36 7.83502 36 17.5Z" fill="#E93729"/>
<path d="M18.953 8.957C20.5937 8.957 21.9047 9.38633 22.886 10.245C23.8827 11.1037 24.381 12.315 24.381 13.879C24.381 15.3203 23.9057 16.4473 22.955 17.26C22.0197 18.0573 20.7777 18.4637 19.229 18.479L19.114 20.204H15.664L15.549 15.926H16.929C18.1097 15.926 19.0067 15.7803 19.62 15.489C20.2487 15.1977 20.563 14.6687 20.563 13.902C20.563 13.3653 20.4173 12.9437 20.126 12.637C19.8347 12.3303 19.4283 12.177 18.907 12.177C18.355 12.177 17.9257 12.338 17.619 12.66C17.3123 12.9667 17.159 13.3883 17.159 13.925H13.456C13.4253 12.9897 13.617 12.1463 14.031 11.395C14.4603 10.6437 15.089 10.0533 15.917 9.624C16.7603 9.17933 17.7723 8.957 18.953 8.957ZM17.435 26.184C16.745 26.184 16.1777 25.9847 15.733 25.586C15.3037 25.172 15.089 24.666 15.089 24.068C15.089 23.4547 15.3037 22.941 15.733 22.527C16.1777 22.113 16.745 21.906 17.435 21.906C18.1097 21.906 18.6617 22.113 19.091 22.527C19.5357 22.941 19.758 23.4547 19.758 24.068C19.758 24.666 19.5357 25.172 19.091 25.586C18.6617 25.9847 18.1097 26.184 17.435 26.184Z" fill="#FBFBFB"/>
</svg>
