<svg width="31" height="24" viewBox="0 0 31 24" fill="none" xmlns="http://www.w3.org/2000/svg">
<path d="M4.61013 12.4578C4.61013 11.9055 5.05785 11.4578 5.61013 11.4578H11.1783C11.7306 11.4578 12.1783 11.9055 12.1783 12.4578V22.4578C12.1783 23.0101 11.7306 23.4578 11.1783 23.4578H5.61013C5.05785 23.4578 4.61013 23.0101 4.61013 22.4578V12.4578Z" fill="#FBFBFB"/>
<path d="M18.4851 12.4578C18.4851 11.9055 18.9328 11.4578 19.4851 11.4578H25.0533C25.6056 11.4578 26.0533 11.9055 26.0533 12.4578V22.4578C26.0533 23.0101 25.6056 23.4578 25.0533 23.4578H19.4851C18.9328 23.4578 18.4851 23.0101 18.4851 22.4578V12.4578Z" fill="#FBFBFB"/>
<path d="M9.98513 19.4578V13.4578H19.9851V19.4578H9.98513Z" fill="#FBFBFB"/>
<path d="M14.0971 0.426558C14.8219 -0.142187 15.8415 -0.142186 16.5663 0.426559L29.8941 10.8844C31.3889 12.0573 30.5595 14.4578 28.6595 14.4578H2.00394C0.103925 14.4578 -0.725464 12.0573 0.769313 10.8844L14.0971 0.426558Z" fill="#FBFBFB"/>
</svg>
