<?xml version="1.0" encoding="UTF-8"?>
<!DOCTYPE svg PUBLIC "-//W3C//DTD SVG 1.1//EN" "http://www.w3.org/Graphics/SVG/1.1/DTD/svg11.dtd">
<svg xmlns="http://www.w3.org/2000/svg" version="1.1" width="1920px" height="1235px" style="shape-rendering:geometricPrecision; text-rendering:geometricPrecision; image-rendering:optimizeQuality; fill-rule:evenodd; clip-rule:evenodd" xmlns:xlink="http://www.w3.org/1999/xlink">
<g><path style="opacity:1" fill="#c88f25" d="M 782.5,116.5 C 794.259,115.35 804.926,118.183 814.5,125C 830.141,136.982 840.641,152.482 846,171.5C 858.458,210.92 860.791,250.92 853,291.5C 847.945,318.387 841.945,345.053 835,371.5C 825.673,396.811 816.34,422.145 807,447.5C 797.468,470.057 787.301,492.224 776.5,514C 786.843,543.85 800.01,572.35 816,599.5C 827.279,614.289 840.279,627.289 855,638.5C 857.343,643.602 858.01,648.936 857,654.5C 855.057,660.328 852.724,665.995 850,671.5C 848.247,672.627 846.413,673.627 844.5,674.5C 833.31,672.575 822.977,668.409 813.5,662C 801.546,650.386 790.713,637.886 781,624.5C 770.27,603.703 760.604,582.37 752,560.5C 734.757,592.209 719.423,624.876 706,658.5C 699.778,673.795 690.945,687.295 679.5,699C 666.904,706.648 654.571,706.314 642.5,698C 635.915,692.643 633.749,685.809 636,677.5C 639.267,667.242 644.601,658.242 652,650.5C 662.341,638.493 673.674,627.493 686,617.5C 708.175,592.327 727.008,564.827 742.5,535C 730.221,499.375 721.721,462.875 717,425.5C 715.149,378.673 713.982,331.839 713.5,285C 712.007,237.479 721.507,192.313 742,149.5C 748.588,138.58 756.922,129.247 767,121.5C 772.243,119.696 777.41,118.029 782.5,116.5 Z M 783.5,153.5 C 790.62,153.478 796.12,156.478 800,162.5C 821.454,193.708 830.787,228.375 828,266.5C 823.807,300.66 817.14,334.327 808,367.5C 795.277,406.397 781.944,445.064 768,483.5C 764.074,465.203 760.407,446.87 757,428.5C 755.391,408.081 753.058,387.748 750,367.5C 748.439,328.515 748.106,289.515 749,250.5C 750.377,228.525 753.711,206.858 759,185.5C 762.084,174.823 767.584,165.656 775.5,158C 778.099,156.205 780.766,154.705 783.5,153.5 Z"/></g>
<g><path style="opacity:1" fill="#c88f25" d="M 969.5,177.5 C 986.194,179.18 1000.19,186.18 1011.5,198.5C 1015.82,203.14 1019.65,208.14 1023,213.5C 1040.27,251.018 1048.77,290.352 1048.5,331.5C 1044.93,361.186 1041.1,390.852 1037,420.5C 1025.07,473.382 1008.91,524.882 988.5,575C 1001.89,603.955 1017.72,631.455 1036,657.5C 1048.13,670.464 1061.63,681.797 1076.5,691.5C 1080.65,696.421 1082.15,702.087 1081,708.5C 1079.49,714.212 1077.82,719.879 1076,725.5C 1075.1,726.701 1073.93,727.535 1072.5,728C 1059.86,728.852 1048.2,725.852 1037.5,719C 1025.03,707.86 1013.19,696.027 1002,683.5C 990.27,664.027 979.103,644.36 968.5,624.5C 964.244,633.423 960.077,642.423 956,651.5C 951.916,664.089 947.249,676.423 942,688.5C 936.503,710.66 928.837,731.993 919,752.5C 914.903,759.594 909.736,765.761 903.5,771C 889.907,777.598 877.407,775.765 866,765.5C 861.852,757.954 861.519,749.954 865,741.5C 876.039,721.136 890.039,703.136 907,687.5C 927.446,659.947 944.28,630.28 957.5,598.5C 949.21,581.806 942.376,564.472 937,546.5C 933.738,534.048 930.071,521.714 926,509.5C 919.42,473.437 915.086,437.104 913,400.5C 906.519,362.398 904.519,324.064 907,285.5C 910.336,258.474 917.336,232.474 928,207.5C 930.667,203.5 933.333,199.5 936,195.5C 944.595,184.62 955.762,178.62 969.5,177.5 Z M 964.5,215.5 C 970.728,214.444 976.061,216.111 980.5,220.5C 1003.22,245.222 1016.06,274.556 1019,308.5C 1019.17,352.27 1014.84,395.603 1006,438.5C 997.13,474.316 987.796,509.983 978,545.5C 950.972,460.972 938.305,374.305 940,285.5C 939.784,267.585 942.784,250.251 949,233.5C 952.939,226.398 958.106,220.398 964.5,215.5 Z"/></g>
<g><path style="opacity:1" fill="#c88e25" d="M 608.5,354.5 C 637.261,354.256 652.595,368.59 654.5,397.5C 653.7,413.064 649.2,427.397 641,440.5C 627.791,457.124 610.958,462.958 590.5,458C 575.503,449.182 567.837,436.015 567.5,418.5C 567.947,399.291 573.78,381.958 585,366.5C 591.767,360.201 599.6,356.201 608.5,354.5 Z"/></g>
<g><path style="opacity:1" fill="#c88f25" d="M 1596.5,376.5 C 1617.89,379.041 1633.39,390.041 1643,409.5C 1648.58,422.083 1651.08,435.249 1650.5,449C 1648.26,504.28 1630.42,553.78 1597,597.5C 1581.42,615.18 1563.26,629.346 1542.5,640C 1499.13,659.64 1463.13,650.806 1434.5,613.5C 1422.67,635.166 1406,651.999 1384.5,664C 1363.82,670.882 1344.49,668.215 1326.5,656C 1316.41,649.248 1307.58,641.082 1300,631.5C 1287.61,611.171 1280.11,589.171 1277.5,565.5C 1277.88,547.875 1282.04,531.208 1290,515.5C 1294.24,508.629 1300.41,505.295 1308.5,505.5C 1309.96,510.756 1311.12,516.089 1312,521.5C 1312.94,537.171 1313.94,552.838 1315,568.5C 1317.96,581.041 1322.29,593.041 1328,604.5C 1336.96,614.894 1348.12,621.561 1361.5,624.5C 1384.84,620.652 1401.34,607.985 1411,586.5C 1412.67,582.167 1414.33,577.833 1416,573.5C 1418.66,558.936 1420.66,544.269 1422,529.5C 1423.02,524.732 1424.36,520.066 1426,515.5C 1429.93,513.113 1434.27,511.779 1439,511.5C 1442.85,512.703 1446.68,513.87 1450.5,515C 1452.67,515.833 1454.17,517.333 1455,519.5C 1454.06,536.523 1454.73,553.523 1457,570.5C 1461.43,580.101 1467.27,588.768 1474.5,596.5C 1481.14,602.983 1489.14,606.483 1498.5,607C 1506.76,609.416 1514.76,608.749 1522.5,605C 1563.15,581.34 1589.98,546.84 1603,501.5C 1608.15,479.46 1610.15,457.127 1609,434.5C 1608.56,419.053 1600.72,411.553 1585.5,412C 1581.38,419.261 1575.38,421.594 1567.5,419C 1554.26,412.479 1552.1,403.312 1561,391.5C 1564.53,388.305 1568.03,385.138 1571.5,382C 1579.73,379.377 1588.06,377.544 1596.5,376.5 Z"/></g>
<g><path style="opacity:1" fill="#c88f25" d="M 1162.5,460.5 C 1185.42,458.954 1203.59,467.287 1217,485.5C 1225.07,500.448 1229.74,516.448 1231,533.5C 1232.93,568.682 1227.59,602.682 1215,635.5C 1208.34,650.841 1199.67,664.841 1189,677.5C 1169.68,699.085 1147.84,702.252 1123.5,687C 1113.84,678.679 1105.67,669.179 1099,658.5C 1069.85,602.003 1071.85,546.67 1105,492.5C 1114.31,478.767 1126.81,469.267 1142.5,464C 1149.26,462.502 1155.92,461.335 1162.5,460.5 Z M 1155.5,492.5 C 1168.96,493.15 1180.79,497.817 1191,506.5C 1194.67,510.847 1197.01,515.847 1198,521.5C 1203.04,552.476 1200.37,582.809 1190,612.5C 1185.38,622.126 1179.54,630.959 1172.5,639C 1168.98,641.198 1165.48,643.365 1162,645.5C 1157.34,643.279 1152.51,641.445 1147.5,640C 1137.84,628.987 1130.67,616.487 1126,602.5C 1116.06,573.185 1116.06,543.852 1126,514.5C 1131.43,501.236 1141.26,493.902 1155.5,492.5 Z"/></g>
<g><path style="opacity:1" fill="#c88f25" d="M 384.5,471.5 C 394.204,471.302 403.87,471.802 413.5,473C 437.355,479.858 447.855,495.691 445,520.5C 443.777,528.72 439.277,534.22 431.5,537C 426.4,538.049 421.233,538.549 416,538.5C 401.283,537.714 386.616,536.38 372,534.5C 369.576,534.53 367.243,534.863 365,535.5C 364.333,538.833 364.333,542.167 365,545.5C 385.172,609.025 398.172,674.025 404,740.5C 405.466,762.148 405.8,783.815 405,805.5C 401.507,837.462 390.507,866.462 372,892.5C 356.78,908.195 338.28,917.695 316.5,921C 289.425,924.702 262.425,927.369 235.5,929C 225.832,930.667 216.165,932.334 206.5,934C 193.148,938.355 183.148,946.688 176.5,959C 178.241,965.086 181.907,969.752 187.5,973C 207.165,981.86 227.831,986.193 249.5,986C 271.507,986.935 293.507,987.602 315.5,988C 340.522,985.811 363.189,977.478 383.5,963C 380,959.5 376.5,956 373,952.5C 372.51,951.207 372.343,949.873 372.5,948.5C 406.847,948.047 441.181,947.047 475.5,945.5C 479.416,945.517 483.25,945.85 487,946.5C 486.981,949.244 486.314,951.911 485,954.5C 469.439,985.621 454.439,1016.95 440,1048.5C 438.954,1050.09 437.787,1051.59 436.5,1053C 435.668,1053.69 435.002,1053.52 434.5,1052.5C 432.604,1044.85 430.771,1037.19 429,1029.5C 428.586,1029.04 428.086,1028.71 427.5,1028.5C 411.041,1037.13 394.707,1045.97 378.5,1055C 351.774,1067.02 323.774,1074.35 294.5,1077C 255.151,1081.47 215.818,1081.47 176.5,1077C 144.996,1072 118.829,1057.5 98,1033.5C 97.6667,1033.83 97.3333,1034.17 97,1034.5C 95.8333,1033.33 94.6667,1032.17 93.5,1031C 94.1667,1030.67 94.8333,1030.33 95.5,1030C 76.0306,998.721 73.1973,965.888 87,931.5C 102.85,899.997 127.684,878.83 161.5,868C 173.02,864.696 184.686,862.029 196.5,860C 219.217,857.299 241.884,854.299 264.5,851C 273.364,848.951 282.03,846.284 290.5,843C 311.46,830.708 327.627,813.874 339,792.5C 341.76,786.459 343.427,780.126 344,773.5C 345.597,762.205 346.263,750.872 346,739.5C 321.595,823.448 266.428,857.615 180.5,842C 151.039,833.518 129.205,815.684 115,788.5C 99.3863,761.11 91.8863,731.61 92.5,700C 93.3208,657.896 101.821,617.396 118,578.5C 127.234,559.185 139.067,541.685 153.5,526C 180.051,504.567 210.051,497.9 243.5,506C 257.85,510.805 272.516,514.471 287.5,517C 292.544,517.877 297.211,516.877 301.5,514C 308.873,506.296 315.873,498.296 322.5,490C 331.23,483.469 340.896,478.802 351.5,476C 362.57,473.876 373.57,472.376 384.5,471.5 Z"/></g>
<g><path style="opacity:1" fill="#c88f25" d="M 617.5,475.5 C 626.771,477.394 633.271,482.727 637,491.5C 645.829,528.777 648.496,566.444 645,604.5C 643.404,619.564 638.737,633.564 631,646.5C 622.686,659.29 612.853,670.79 601.5,681C 598.29,683.104 594.957,684.937 591.5,686.5C 588.208,686.103 585.374,684.77 583,682.5C 563.581,656.191 566.915,633.191 593,613.5C 613.048,584.976 621.048,553.31 617,518.5C 615.281,506.629 612.781,494.963 609.5,483.5C 609.209,477.791 611.875,475.125 617.5,475.5 Z"/></g>
<g><path style="opacity:1" fill="#c88f25" d="M 1805.5,530.5 C 1806.83,530.5 1808.17,530.5 1809.5,530.5C 1796.15,566.531 1780.65,601.531 1763,635.5C 1740.28,675.891 1710.11,709.725 1672.5,737C 1631.11,762.791 1585.95,775.624 1537,775.5C 1520.45,774.976 1503.95,773.81 1487.5,772C 1461.83,767.666 1436.16,763.332 1410.5,759C 1378.78,756.191 1347.45,758.524 1316.5,766C 1280.31,775.063 1244.98,786.73 1210.5,801C 1178.44,813.009 1145.28,818.509 1111,817.5C 1085.03,817.475 1059.2,815.641 1033.5,812C 1007.84,805.114 982.841,796.447 958.5,786C 946.729,781.965 934.895,778.132 923,774.5C 921.743,774.15 921.409,773.483 922,772.5C 927.246,767.925 931.746,762.758 935.5,757C 939.596,756.802 943.596,757.469 947.5,759C 974.459,770.152 1001.79,780.152 1029.5,789C 1072.28,796.156 1115.28,797.822 1158.5,794C 1163.53,793.159 1168.53,792.159 1173.5,791C 1210.49,778.67 1247.49,766.337 1284.5,754C 1326.16,740.459 1368.83,735.125 1412.5,738C 1438.91,741.457 1465.24,745.457 1491.5,750C 1528.2,755.854 1564.53,754.187 1600.5,745C 1632.43,736.018 1660.76,720.684 1685.5,699C 1705.48,680.35 1723.32,659.85 1739,637.5C 1763.19,603.12 1785.36,567.453 1805.5,530.5 Z"/></g>
<g><path style="opacity:1" fill="#c88f25" d="M 511.5,552.5 C 543.559,549.619 555.059,563.619 546,594.5C 542.587,605.79 535.087,610.29 523.5,608C 518.049,605.614 512.382,603.78 506.5,602.5C 495.444,603.39 489.611,609.39 489,620.5C 487.596,633.871 485.93,647.204 484,660.5C 480.083,679.728 469.916,694.562 453.5,705C 444.472,707.732 437.305,705.232 432,697.5C 430.798,694.226 429.798,690.893 429,687.5C 424.946,665.565 421.28,643.565 418,621.5C 415.602,607.463 418.768,594.963 427.5,584C 435.082,578.903 443.415,577.237 452.5,579C 457.776,581.112 461.109,584.945 462.5,590.5C 472.391,569.402 488.724,556.736 511.5,552.5 Z"/></g>
<g><path style="opacity:1" fill="#c9902a" d="M 1223.5,682.5 C 1226,682.511 1226.17,683.178 1224,684.5C 1223.54,683.906 1223.37,683.239 1223.5,682.5 Z"/></g>
<g><path style="opacity:1" fill="#d89731" d="M 1173.5,693.5 C 1174.53,693.897 1174.69,694.563 1174,695.5C 1173.54,694.906 1173.37,694.239 1173.5,693.5 Z"/></g>
<g><path style="opacity:1" fill="#c88f25" d="M 807.5,732.5 C 823.702,732.189 839.869,732.522 856,733.5C 856.5,733.833 857,734.167 857.5,734.5C 855.033,741.368 853.033,748.368 851.5,755.5C 814.295,750.025 779.295,756.191 746.5,774C 724.962,786.268 703.296,798.268 681.5,810C 649.1,821.971 616.434,822.637 583.5,812C 572.781,807.138 562.448,801.472 552.5,795C 543.314,787.57 534.314,779.904 525.5,772C 509.727,761.405 493.06,759.739 475.5,767C 466.845,771.814 461.178,778.981 458.5,788.5C 460.077,791.015 459.577,793.015 457,794.5C 455.523,793.556 454.523,792.223 454,790.5C 453.771,769.488 463.604,755.321 483.5,748C 499.272,742.585 514.605,743.585 529.5,751C 539.689,756.926 549.355,763.593 558.5,771C 586.607,788.802 617.274,795.469 650.5,791C 660.665,789.612 670.331,786.612 679.5,782C 703.578,768.628 728.245,756.294 753.5,745C 771.06,738.326 789.06,734.159 807.5,732.5 Z"/></g>
<g><path style="opacity:1" fill="#f9faf9" d="M 1453.5,1001.5 C 1454.08,1000.23 1454.74,1000.23 1455.5,1001.5C 1455.03,1002.46 1454.36,1002.46 1453.5,1001.5 Z"/></g>
<g><path style="opacity:1" fill="#f9faf9" d="M 1454.5,1003.5 C 1455.83,1004.17 1455.83,1004.17 1454.5,1003.5 Z"/></g>
</svg>
