<svg width="30" height="29" viewBox="0 0 30 29" fill="none" xmlns="http://www.w3.org/2000/svg">
<path fill-rule="evenodd" clip-rule="evenodd" d="M16.8286 -1.98473e-08C23.732 0.000126329 29.3287 5.59662 29.3287 12.5001C29.3287 19.4036 23.732 25.0001 16.8286 25.0002C14.0861 25.0002 11.5517 24.1141 9.49068 22.6166L4.23618 27.6909L4.0436 27.8602C3.04793 28.6434 1.60082 28.5605 0.70173 27.6297C-0.197394 26.6986 -0.229507 25.2489 0.588238 24.2811L0.763024 24.0943L6.10931 18.9315C4.97941 17.0524 4.32847 14.8525 4.32846 12.5001C4.32846 5.59658 9.925 -3.56343e-09 16.8286 -1.98473e-08ZM25.3283 12.4999C25.3282 7.80559 21.5227 4.00043 16.8284 4.00041C12.1339 4.00041 8.3279 7.80581 8.3279 12.5002C8.32797 17.1946 12.1344 20.9998 16.8288 20.9998C21.523 20.9996 25.3283 17.1942 25.3283 12.4999Z" fill="#E93729"/>
</svg>
