<svg width="28" height="28" viewBox="0 0 28 28" fill="none" xmlns="http://www.w3.org/2000/svg">
<path d="M13.7305 18.4912C14.168 18.4912 14.5703 18.6553 14.9375 18.9834C15.3046 19.3037 15.4883 19.7139 15.4883 20.2139V20.2725L15.4766 20.3311C15.4765 20.7762 15.3046 21.171 14.9609 21.5146C14.625 21.8505 14.2695 22.0186 13.8945 22.0186L13.5898 22.0537H13.5312C13.0001 22.0537 12.5625 21.8817 12.2188 21.5381C11.8751 21.1944 11.7032 20.7958 11.7031 20.3428V20.2256C11.7031 19.8428 11.8634 19.4638 12.1836 19.0889C12.5117 18.7061 12.9023 18.5146 13.3555 18.5146L13.4844 18.4912H13.7305Z" fill="#1E1E1E" fill-opacity="0.45"/>
<path d="M13.707 4.88574C15.1211 4.88574 16.293 5.26855 17.2227 6.03418C18.1522 6.79198 18.6172 7.80378 18.6172 9.06934C18.6171 10.327 17.9843 11.5421 16.7188 12.7139C15.7657 13.5966 15.2148 14.1514 15.0664 14.3779C14.7384 14.8701 14.5742 15.5148 14.5742 16.3115C14.5741 16.8035 14.1952 17.0498 13.4375 17.0498C13.1407 17.0498 12.8906 16.8309 12.6875 16.3936C12.4844 15.9561 12.3828 15.452 12.3828 14.8818C12.3828 14.3116 12.5431 13.7724 12.8633 13.2646C12.9805 13.0772 13.3243 12.6669 13.8945 12.0342C14.4726 11.3937 14.8828 10.8545 15.125 10.417C15.375 9.97176 15.5 9.46374 15.5 8.89355C15.5 8.31551 15.3124 7.87011 14.9375 7.55762C14.5703 7.24512 14.0938 7.08887 13.5078 7.08887C12.9219 7.08887 12.4141 7.38184 11.9844 7.96777C11.5625 8.55358 11.0585 8.84668 10.4727 8.84668C9.89461 8.84668 9.60555 8.47538 9.60547 7.7334V7.52246C9.60547 6.78816 9.84775 6.2334 10.332 5.8584C11.168 5.20996 12.293 4.88574 13.707 4.88574Z" fill="#1E1E1E" fill-opacity="0.45"/>
<path fill-rule="evenodd" clip-rule="evenodd" d="M14 0C21.732 0 28 6.26801 28 14C28 21.732 21.732 28 14 28C6.26801 28 0 21.732 0 14C0 6.26801 6.26801 0 14 0ZM14 3C7.92487 3 3 7.92487 3 14C3 20.0751 7.92487 25 14 25C20.0751 25 25 20.0751 25 14C25 7.92487 20.0751 3 14 3Z" fill="#1E1E1E" fill-opacity="0.45"/>
</svg>
