<svg width="36" height="18" viewBox="0 0 36 18" fill="none" xmlns="http://www.w3.org/2000/svg">
<path fill-rule="evenodd" clip-rule="evenodd" d="M26.3219 4.55273C26.5165 4.57862 26.7868 4.61525 27.11 4.66016C27.7902 4.75469 28.7093 4.88654 29.6588 5.03809C30.6056 5.1892 31.5952 5.36142 32.4137 5.53516C32.8219 5.62182 33.2014 5.71252 33.5172 5.80371C33.7993 5.88521 34.1385 5.99592 34.3893 6.1543C34.7803 6.4015 34.9681 6.82184 35.0572 7.04688C35.1699 7.33128 35.257 7.66463 35.3248 8.00488C35.4616 8.69124 35.5445 9.53035 35.565 10.3438C35.5854 11.1511 35.5457 11.9916 35.4127 12.6699C35.3474 13.0029 35.2479 13.3582 35.0846 13.6621C34.9339 13.9423 34.6118 14.3874 34.0191 14.4863C33.5659 14.5618 32.7144 14.6089 31.65 14.6426C31.5007 14.6473 31.3453 14.6491 31.1852 14.6533C30.69 16.3 29.163 17.4999 27.3551 17.5C25.5713 17.5 24.0603 16.3323 23.5445 14.7197C21.361 14.7174 19.0237 14.7064 16.7223 14.6875C15.1765 14.6748 13.6458 14.6578 12.1881 14.6416C11.6966 16.2942 10.1673 17.4999 8.35508 17.5C6.50615 17.5 4.95102 16.2452 4.49277 14.541C3.95194 14.5329 3.48064 14.5267 3.09141 14.5205C2.69198 14.5142 2.378 14.5084 2.16465 14.5049C2.05838 14.5031 1.97649 14.5019 1.92148 14.501C1.89422 14.5005 1.87298 14.5002 1.85898 14.5H1.83848L1.39902 14.4922L1.10703 14.1641L1.85508 13.5C1.17 14.108 1.11198 14.1599 1.10703 14.1641L1.10508 14.1611C1.10421 14.1601 1.10322 14.1585 1.10215 14.1572C1.09986 14.1546 1.09658 14.1512 1.09336 14.1475C1.08686 14.14 1.07782 14.1299 1.06797 14.1182C1.04813 14.0946 1.02151 14.0625 0.990821 14.0234C0.929677 13.9456 0.846557 13.8338 0.762305 13.7021C0.626754 13.4902 0.355079 13.0282 0.355078 12.5C0.355078 11.5698 0.172786 10.6148 0.0611332 9.58203C0.00999981 9.10894 -0.026102 8.59886 0.0240238 8.14355C0.0717805 7.71002 0.221554 7.10063 0.755469 6.7002L0.970313 6.54395C2.05781 5.7839 3.32726 5.28964 4.30723 4.9834C4.83775 4.81763 5.30205 4.70098 5.63535 4.62598C5.68626 4.61453 5.73516 4.6053 5.77988 4.5957L9.18516 0H21.7691L26.3219 4.55273ZM6.91856 6.41992L6.51914 6.48535L6.52012 6.48633C6.51964 6.48641 6.51845 6.48702 6.51719 6.4873C6.51354 6.48793 6.50652 6.48866 6.49766 6.49023C6.47946 6.4935 6.44995 6.49848 6.41172 6.50586C6.33494 6.52069 6.2199 6.54451 6.07481 6.57715C5.78343 6.64271 5.37263 6.74516 4.90391 6.8916C3.97645 7.18143 2.88705 7.62418 2.02988 8.24609C2.02399 8.27172 2.01715 8.30949 2.01133 8.3623C1.98648 8.58806 2.0006 8.91556 2.04941 9.36719C2.13634 10.1713 2.34633 11.3903 2.35313 12.4482C2.35444 12.4518 2.35603 12.4561 2.35801 12.4609C2.36377 12.475 2.37178 12.4905 2.38047 12.5078C2.57621 12.511 2.8257 12.5158 3.12266 12.5205C3.49903 12.5265 3.95239 12.5322 4.47129 12.54C4.9013 10.7946 6.4769 9.5 8.35508 9.5C10.2693 9.50014 11.8674 10.8453 12.2604 12.6416C13.701 12.6576 15.2122 12.675 16.7379 12.6875C18.997 12.706 21.2877 12.7171 23.4312 12.7197C23.7942 10.8842 25.413 9.5 27.3551 9.5C29.2728 9.50014 30.874 10.8501 31.2633 12.6514C31.3741 12.6483 31.4825 12.6479 31.5875 12.6445C32.4047 12.6187 33.0084 12.5851 33.3854 12.5498C33.4057 12.4822 33.4292 12.395 33.4508 12.2852C33.5448 11.8058 33.5845 11.1256 33.566 10.3936C33.5476 9.66777 33.4735 8.94688 33.3639 8.39648C33.3111 8.13147 33.2534 7.93327 33.2037 7.80273C33.1473 7.78287 33.0686 7.75527 32.9625 7.72461C32.7118 7.6522 32.3843 7.57406 31.9986 7.49219C31.229 7.32881 30.2778 7.16282 29.3434 7.01367C28.4114 6.86493 27.5066 6.73402 26.8346 6.64062C26.4992 6.59402 26.2219 6.55687 26.0289 6.53125C25.9326 6.51847 25.8564 6.50861 25.8053 6.50195C25.7802 6.49869 25.7606 6.49582 25.7477 6.49414C25.7415 6.49335 25.7362 6.49261 25.733 6.49219H25.7281L25.3893 6.44824L20.941 2H10.193L6.91856 6.41992Z" fill="#1E1E1E" fill-opacity="0.45"/>
</svg>
