<svg width="30" height="28" viewBox="0 0 30 28" fill="none" xmlns="http://www.w3.org/2000/svg">
<path d="M13.6167 0.690994C13.916 -0.230316 15.2194 -0.230313 15.5188 0.690997L18.2722 9.16517C18.4061 9.57719 18.79 9.85615 19.2233 9.85615L28.1335 9.85615C29.1023 9.85615 29.505 11.0958 28.7213 11.6652L21.5128 16.9025C21.1623 17.1571 21.0156 17.6085 21.1495 18.0205L23.9029 26.4947C24.2023 27.416 23.1478 28.1821 22.3641 27.6127L15.1555 22.3754C14.805 22.1208 14.3304 22.1208 13.9799 22.3754L6.77138 27.6127C5.98767 28.1821 4.93319 27.416 5.23254 26.4947L7.98596 18.0205C8.11984 17.6085 7.97318 17.1571 7.62269 16.9025L0.414131 11.6652C-0.369583 11.0958 0.0331947 9.85615 1.00192 9.85615L9.91219 9.85615C10.3454 9.85615 10.7294 9.57719 10.8632 9.16517L13.6167 0.690994Z" fill="#1E1E1E" fill-opacity="0.45"/>
</svg>
