<svg width="28" height="28" viewBox="0 0 28 28" fill="none" xmlns="http://www.w3.org/2000/svg">
<path d="M14 0C21.732 0 28 6.26801 28 14C28 21.732 21.732 28 14 28C6.26801 28 0 21.732 0 14C0 6.26801 6.26801 0 14 0ZM14 3C7.92487 3 3 7.92487 3 14C3 20.0751 7.92487 25 14 25C20.0751 25 25 20.0751 25 14C25 7.92487 20.0751 3 14 3ZM14.8438 10.2529C15.2969 10.2529 15.5586 10.4443 15.6289 10.8271C15.6679 11.0468 15.6875 12.3595 15.6875 14.7646C15.6875 17.1629 15.7383 18.5694 15.8398 18.9834C15.9493 19.3896 16.2228 19.8233 16.6602 20.2842C17.0976 20.745 17.3164 21.0342 17.3164 21.1514V21.292C17.3157 21.573 16.3313 21.7139 14.3633 21.7139H13.25C12.2111 21.7139 11.586 21.6865 11.375 21.6318C11.172 21.5694 11.0704 21.4012 11.0703 21.1279C11.0703 20.8467 11.2657 20.5107 11.6562 20.1201C12.0468 19.7296 12.2929 19.3388 12.3945 18.9482C12.4961 18.5498 12.5469 17.5223 12.5469 15.8662C12.5469 14.2027 12.5039 13.222 12.418 12.9248C12.332 12.628 12.0624 12.374 11.6094 12.1631C11.1642 11.9444 10.9416 11.6864 10.9414 11.3896C10.9414 11.085 11.1485 10.8623 11.5625 10.7217C12.5 10.4092 13.5352 10.2529 14.668 10.2529H14.8438ZM14.1992 4.85059C14.3164 4.87402 14.4141 4.88574 14.4922 4.88574C14.8672 4.88574 15.1992 5.05371 15.4883 5.38965C15.7772 5.72552 15.9219 6.04595 15.9219 6.35059V6.65527C15.9063 6.73325 15.8984 6.79204 15.8984 6.83105C15.8983 7.15907 15.7147 7.47959 15.3477 7.79199C14.9805 8.10441 14.5742 8.26074 14.1289 8.26074H13.7656C13.3282 8.26074 12.9492 8.12394 12.6289 7.85059C12.3165 7.56942 12.1602 7.2489 12.1602 6.88965L12.1367 6.77246V6.46777C12.1367 6.01471 12.3126 5.63181 12.6641 5.31934C13.0234 5.00684 13.4102 4.85059 13.8242 4.85059H14.1992Z" fill="#1E1E1E" fill-opacity="0.45"/>
</svg>
