<svg width="36" height="35" viewBox="0 0 36 35" fill="none" xmlns="http://www.w3.org/2000/svg">
<path fill-rule="evenodd" clip-rule="evenodd" d="M19.7802 3.04889C26.6836 3.04902 32.2803 8.6455 32.2803 15.549C32.2803 22.4524 26.6837 28.049 19.7802 28.0491C17.0378 28.0491 14.5033 27.163 12.4423 25.6655L7.18781 30.7398L6.99523 30.9091C5.99956 31.6923 4.55245 31.6094 3.65336 30.6786C2.75423 29.7475 2.72212 28.2978 3.53987 27.33L3.71465 27.1432L9.06094 21.9804C7.93104 20.1012 7.2801 17.9014 7.28009 15.549C7.28009 8.64547 12.8766 3.04889 19.7802 3.04889ZM28.2799 15.5488C28.2798 10.8545 24.4743 7.04932 19.78 7.0493C15.0856 7.0493 11.2795 10.8547 11.2795 15.5491C11.2796 20.2435 15.086 24.0487 19.7804 24.0487C24.4746 24.0485 28.2799 20.2431 28.2799 15.5488Z" fill="#1E1E1E" fill-opacity="0.45"/>
</svg>
