<svg width="35" height="35" viewBox="0 0 35 35" fill="none" xmlns="http://www.w3.org/2000/svg">
<path d="M8.96868 22.4L4.68565 5.62957H0V2.9935H6.73306L7.74275 6.94683L35 6.92733L32.1021 22.3998H8.96868V22.4ZM8.4158 9.58243L11.0161 19.7639H29.914L31.824 9.56568L8.4158 9.58243Z" fill="#1E1E1E" fill-opacity="0.45"/>
<path d="M12.5772 32.0066C10.2528 32.0066 8.36172 30.1155 8.36172 27.791C8.36172 25.4666 10.2528 23.5756 12.5772 23.5756H28.4596C30.784 23.5756 32.6751 25.4666 32.6751 27.791C32.6751 30.1155 30.784 32.0066 28.4596 32.0066C26.1351 32.0066 24.2441 30.1155 24.2441 27.791C24.2441 27.2328 24.3534 26.6997 24.5514 26.2116H16.4854C16.6834 26.6997 16.7928 27.2328 16.7928 27.791C16.7927 30.1155 14.9016 32.0066 12.5772 32.0066ZM26.8801 27.791C26.8801 28.662 27.5887 29.3705 28.4596 29.3705C29.3305 29.3705 30.039 28.662 30.039 27.791C30.039 26.9201 29.3305 26.2116 28.4596 26.2116C27.5887 26.2116 26.8801 26.9201 26.8801 27.791ZM10.9978 27.791C10.9978 28.662 11.7063 29.3705 12.5772 29.3705C13.4481 29.3705 14.1566 28.662 14.1566 27.791C14.1566 26.9201 13.4481 26.2116 12.5772 26.2116C11.7063 26.2116 10.9978 26.9201 10.9978 27.791Z" fill="#1E1E1E" fill-opacity="0.45"/>
</svg>
