<svg width="28" height="22" viewBox="0 0 28 22" fill="none" xmlns="http://www.w3.org/2000/svg">
<path fill-rule="evenodd" clip-rule="evenodd" d="M18.4805 0.0107422C19.4889 0.113235 20.2764 0.96452 20.2764 2V4H26L26.2041 4.01074C27.2128 4.11301 28 4.96435 28 6V20C28 21.0357 27.2128 21.887 26.2041 21.9893L26 22H2C0.96435 22 0.113005 21.2128 0.0107422 20.2041L0 20V6C0 4.89543 0.895431 4 2 4H7.72461V2C7.72461 0.96435 8.51183 0.113005 9.52051 0.0107422L9.72461 0H18.2764L18.4805 0.0107422ZM8.7998 19H18.7998V7H8.7998V19ZM20.7998 19H25V7H20.7998V19ZM3 19H6.7998V7H3V19ZM9.72461 4H18.2764V2H9.72461V4Z" fill="#1E1E1E" fill-opacity="0.45"/>
</svg>
